<?xml version="1.0" standalone="no"?>
<!DOCTYPE svg PUBLIC "-//W3C//DTD SVG 20010904//EN"
 "http://www.w3.org/TR/2001/REC-SVG-20010904/DTD/svg10.dtd">
<svg version="1.0" xmlns="http://www.w3.org/2000/svg"
 width="723.000000pt" height="723.000000pt" viewBox="0 0 723.000000 723.000000"
 preserveAspectRatio="xMidYMid meet">
<metadata>
Created by potrace 1.14, written by Peter Selinger 2001-2017
</metadata>
<g transform="translate(0.000000,723.000000) scale(0.100000,-0.100000)"
fill="#000000" stroke="none">
<path d="M3369 7226 c-2 -2 -42 -7 -89 -10 -47 -4 -101 -9 -120 -12 -178 -27
-245 -39 -378 -70 -1055 -244 -1967 -981 -2436 -1967 -180 -379 -299 -815
-334 -1226 -9 -112 -9 -531 1 -646 12 -145 54 -403 87 -530 6 -22 13 -50 16
-63 31 -147 151 -467 249 -667 82 -166 248 -445 317 -530 4 -5 45 -57 90 -115
106 -136 127 -159 283 -316 214 -215 406 -369 654 -523 438 -272 890 -433
1451 -515 187 -28 739 -29 900 -2 14 3 75 12 135 21 143 21 399 84 556 136
1227 405 2157 1452 2410 2714 49 243 64 412 64 715 0 279 -6 362 -41 580 -99
620 -361 1201 -766 1702 -50 62 -166 187 -257 278 -226 224 -432 386 -681 534
-455 270 -887 419 -1430 492 -104 14 -669 31 -681 20z"/>
</g>
</svg>
